<?xml version="1.0" encoding="UTF-8"?>
<svg id="Calque_1" data-name="Calque 1" xmlns="http://www.w3.org/2000/svg" viewBox="0 0 1240.67 247.03">
  <defs>
    <style>
      .cls-1 {
        fill: #1f2328;
      }

      .cls-2 {
        fill: #e9b8c0;
      }
    </style>
  </defs>
  <g id="Layer_1-2" data-name="Layer 1-2">
    <path class="cls-2" d="M238.11,60.84l7.31,15.78c4.03,8.7.25,19.02-8.46,23.06l-15.78,7.31c-8.7,4.03-12.48,14.37-8.45,23.08l7.3,15.76c4.04,8.73.24,19.06-8.47,23.09l-15.76,7.3c-8.7,4.03-12.51,14.36-8.48,23.07l7.31,15.78c4.03,8.7.25,19.02-8.46,23.06l-15.78,7.31c-8.7,4.03-19.02.25-23.06-8.46l-7.31-15.78c-4.03-8.7-14.37-12.48-23.08-8.45l-15.76,7.3c-8.7,4.03-19.05.26-23.09-8.47l-7.3-15.76c-4.03-8.7-14.36-12.51-23.07-8.48l-15.78,7.31c-8.7,4.03-19.02.25-23.06-8.46l-7.31-15.78c-4.03-8.7-.25-19.02,8.46-23.06l15.78-7.31c8.7-4.03,12.48-14.37,8.45-23.08l-7.3-15.76c-4.03-8.7-.24-19.06,8.47-23.09l15.76-7.3c8.7-4.03,12.51-14.36,8.48-23.07l-7.31-15.78c-4.03-8.7-.25-19.02,8.46-23.06l15.78-7.31c8.7-4.03,19.02-.25,23.06,8.46l7.31,15.78c4.03,8.7.25,19.02-8.46,23.06l-15.78,7.31c-8.7,4.03-12.48,14.37-8.45,23.08l7.3,15.76c4.03,8.7.24,19.06-8.47,23.09l-15.76,7.3c-8.7,4.03-12.51,14.36-8.48,23.07l7.31,15.78c4.03,8.7,14.37,12.48,23.08,8.45l15.76-7.3c8.7-4.03,19.06-.24,23.09,8.47l7.3,15.76c4.04,8.73,14.36,12.51,23.07,8.48l15.78-7.31c8.7-4.03,12.49-14.35,8.45-23.08l-7.3-15.76c-4.03-8.7-.24-19.06,8.47-23.09l15.76-7.3c8.7-4.03,12.51-14.36,8.48-23.07l-7.31-15.78c-4.03-8.7-14.37-12.48-23.08-8.45l-15.76,7.3c-8.7,4.03-12.51,14.36-8.48,23.07l7.31,15.78c4.03,8.7.25,19.02-8.46,23.06l-15.78,7.31c-8.7,4.03-19.02.25-23.06-8.46l-7.31-15.78c-4.03-8.7-.25-19.02,8.46-23.06l15.78-7.31c8.7-4.03,12.48-14.37,8.45-23.08l-7.3-15.76c-4.03-8.7-.24-19.06,8.47-23.09l15.76-7.3c8.7-4.03,19.06-.24,23.09,8.47l7.3,15.76c4.03,8.7,14.36,12.51,23.07,8.48l15.78-7.31c8.7-4.03,19.02-.25,23.06,8.46Z"/>
  </g>
  <g>
    <path class="cls-1" d="M446.03,177.04c-8.69,5.76-19.26,8.65-31.7,8.65-10.8,0-20.18-2.52-28.14-7.55-7.96-5.03-14.09-12.21-18.39-21.55-4.31-9.33-6.45-20.31-6.45-32.93s2.1-24.11,6.31-33.36c4.21-9.24,10.3-16.33,18.25-21.27,7.96-4.94,17.43-7.41,28.41-7.41,12.25,0,22.55,2.74,30.88,8.24,8.32,5.49,13.95,13.35,16.88,23.6h46.94c-2.02-15.19-7.23-28.36-15.65-39.53-8.42-11.16-19.26-19.81-32.52-25.94-13.27-6.13-28.41-9.2-45.42-9.2-20.14,0-37.79,4.35-52.98,13.04-15.19,8.69-27,20.91-35.41,36.64-8.42,15.74-12.63,34.22-12.63,55.44s4.02,39.94,12.08,55.59c8.05,15.65,19.49,27.73,34.31,36.23,14.82,8.51,32.39,12.76,52.7,12.76,17.02,0,32.3-3.11,45.84-9.33,13.54-6.22,24.66-15,33.35-26.35,8.69-11.34,14.23-24.52,16.61-39.53h-46.11c-2.74,10.07-8.46,17.98-17.16,23.74Z"/>
    <path class="cls-1" d="M628.44,162.62c0,6.08-1.07,11.26-3.21,15.55-2.15,4.29-5.18,7.55-9.12,9.79s-8.67,3.35-14.21,3.35-10.16-1.12-14.14-3.35c-3.98-2.23-7.02-5.49-9.12-9.79-2.1-4.29-3.15-9.46-3.15-15.55v-74.65h-43.42v77.6c0,12.78,2.81,23.79,8.44,33.04,5.63,9.24,13.67,16.35,24.12,21.31,10.46,4.96,22.87,7.44,37.26,7.44s26.83-2.48,37.33-7.44c10.5-4.96,18.56-12.07,24.19-21.31,5.63-9.25,8.44-20.26,8.44-33.04v-77.6h-43.42v74.65Z"/>
    <path class="cls-1" d="M825.87,92.63c-9.42-6.22-20.54-9.33-33.35-9.33-9.88,0-18.98,1.88-27.31,5.63-8.33,3.75-14.6,8.74-18.81,14.96V18.25h-42.27v206.97h39.8l2.2-17.57c3.66,6.22,9.37,11.3,17.15,15.23,7.77,3.94,16.42,5.9,25.94,5.9,12.99,0,24.48-2.93,34.45-8.79,9.97-5.85,17.75-14.13,23.33-24.84,5.58-10.71,8.38-23.1,8.38-37.19,0-15-2.57-28.09-7.69-39.25-5.12-11.16-12.4-19.85-21.83-26.08ZM808.85,173.61c-2.66,5.13-6.41,9.16-11.26,12.08-4.85,2.93-10.66,4.39-17.43,4.39s-12.4-1.42-17.43-4.25-8.97-6.87-11.8-12.08c-2.84-5.22-4.26-11.21-4.26-17.98s1.42-12.99,4.26-18.12c2.83-5.12,6.77-9.1,11.8-11.95,5.03-2.83,10.85-4.25,17.43-4.25s12.58,1.47,17.43,4.39c4.85,2.93,8.6,6.96,11.26,12.08,2.65,5.12,3.98,11.07,3.98,17.84s-1.33,12.72-3.98,17.84Z"/>
    <path class="cls-1" d="M964.34,190.36c-5.31,2.74-11.99,4.12-20.04,4.12-10.98,0-19.08-3.07-24.29-9.2-3.59-4.22-5.86-10.14-6.98-17.52l99.61-.46v-10.71c0-15-2.84-27.95-8.51-38.84-5.67-10.89-13.72-19.3-24.15-25.25-10.43-5.94-22.88-8.92-37.33-8.92s-25.9,3.11-36.51,9.33c-10.62,6.22-18.9,14.78-24.84,25.66-5.95,10.89-8.92,23.47-8.92,37.74s3.06,26.58,9.19,37.47c6.13,10.89,14.55,19.45,25.25,25.67,10.71,6.22,22.92,9.33,36.64,9.33,18.85,0,34.59-4.53,47.21-13.59,12.62-9.06,20.13-21.18,22.51-36.37h-38.7c-1.47,4.94-4.86,8.79-10.16,11.53ZM925.51,122.01c4.48-2.74,10.3-4.12,17.43-4.12,8.6,0,15.37,2.15,20.31,6.45,4.94,4.3,7.41,10.11,7.41,17.43h-57.08c.51-2.52,1.11-4.9,1.91-7,2.2-5.76,5.53-10.02,10.02-12.76Z"/>
    <path class="cls-1" d="M1138.31,204.29c-4.09,2.71-9.06,4.07-14.92,4.07-5.08,0-9.49-1.18-13.24-3.55-3.74-2.37-6.63-5.75-8.65-10.14-2.03-4.39-3.04-9.56-3.04-15.5s.99-11.35,2.97-15.7c1.98-4.35,4.84-7.69,8.59-10.01,3.75-2.33,8.2-3.49,13.37-3.49,5.77,0,10.61,1.29,14.53,3.88,3.92,2.58,6.57,6.28,7.94,11.11h22.09c-.95-7.15-3.4-13.34-7.36-18.6-3.96-5.25-9.06-9.32-15.3-12.21-6.24-2.88-13.37-4.33-21.37-4.33-9.48,0-17.78,2.05-24.93,6.14-7.15,4.09-12.7,9.84-16.66,17.24-3.96,7.41-5.94,16.1-5.94,26.09s1.89,18.8,5.68,26.16c3.79,7.36,9.17,13.05,16.14,17.05,6.98,4.01,15.24,6.01,24.8,6.01,8.01,0,15.2-1.46,21.57-4.39,6.37-2.93,11.6-7.06,15.69-12.4,4.09-5.34,6.69-11.54,7.81-18.6h-21.7c-1.29,4.74-3.98,8.46-8.07,11.17Z"/>
    <polygon class="cls-1" points="1202.95 207.59 1202.95 131.38 1182.03 131.38 1182.03 226.96 1185.78 226.96 1202.95 226.96 1240.67 226.96 1240.67 207.59 1202.95 207.59"/>
  </g>
</svg>
